<svg xmlns="http://www.w3.org/2000/svg" xmlns:xlink="http://www.w3.org/1999/xlink" version="1.1" x="0px" y="0px" viewBox="0 0 50 62.5" style="enable-background:new 0 0 50 50;" xml:space="preserve"><path d="M17.8,21.3v-5.8h5.9v5.8H17.8z M6.1,9.6v2.9h38.2V9.6H6.1z M44.3,12.5v14.7h-2.9h-0.1v-2.9h-2.9v-2.9h-3v-3h-2.9v3h-2.9v2.9  h-2.9v2.9h-3v3h-5.9v-3h-2.9v-2.9H12v2.9H9v3H6v-0.1V12.5H3.1V39H6v-3h38.3v3h2.9V12.5H44.3z M6.1,39v2.9h38.2V39H6.1z"/><text x="0" y="65" fill="#000000" font-size="5px" font-weight="bold" font-family="'Helvetica Neue', Helvetica, Arial-Unicode, Arial, Sans-serif">Created by ATOM</text><text x="0" y="70" fill="#000000" font-size="5px" font-weight="bold" font-family="'Helvetica Neue', Helvetica, Arial-Unicode, Arial, Sans-serif">from the Noun Project</text></svg>