<svg xmlns="http://www.w3.org/2000/svg" xmlns:xlink="http://www.w3.org/1999/xlink" version="1.1" x="0px" y="0px" viewBox="0 0 50 62.5" style="enable-background:new 0 0 50 50;" xml:space="preserve"><polygon points="32.4,17.7 32.3,17.7 32.3,11.8 29.4,11.8 29.4,11.8 29.4,11.7 29.4,11.7 29.4,8.8 29.4,5.9 29.4,5.9 26.4,5.9   26.4,2.9 23.5,2.9 23.5,5.9 20.6,5.9 20.6,8.8 20.6,11.8 17.7,11.8 17.7,17.7 17.6,17.7 2.9,17.7 2.9,23.5 5.9,23.5 5.9,26.4   8.8,26.4 8.8,26.5 8.8,29.5 8.8,29.5 11.8,29.5 11.8,29.5 11.8,35.3 8.8,35.3 8.8,38.2 5.9,38.2 5.9,47 14.7,47 14.7,44.1   20.6,44.1 20.6,41.1 23.5,41.1 23.5,38.2 26.5,38.2 26.5,41.1 29.4,41.1 29.4,41.2 29.4,44.1 35.3,44.1 35.3,47 44.1,47 44.1,38.2   41.1,38.2 41.1,35.3 38.2,35.3 38.2,29.5 41.1,29.5 41.1,26.5 41.1,26.5 41.1,26.4 41.1,26.4 44.1,26.4 44.1,23.5 44.1,23.5   47,23.5 47,17.7 "/><text x="0" y="65" fill="#000000" font-size="5px" font-weight="bold" font-family="'Helvetica Neue', Helvetica, Arial-Unicode, Arial, Sans-serif">Created by ATOM</text><text x="0" y="70" fill="#000000" font-size="5px" font-weight="bold" font-family="'Helvetica Neue', Helvetica, Arial-Unicode, Arial, Sans-serif">from the Noun Project</text></svg>