<svg xmlns="http://www.w3.org/2000/svg" xmlns:xlink="http://www.w3.org/1999/xlink" version="1.1" x="0px" y="0px" viewBox="0 0 50 62.5" style="enable-background:new 0 0 50 50;" xml:space="preserve"><path d="M8.8,26.5h2.9v3H8.8V26.5z M11.7,35.3H8.8v2.9h2.9V35.3z M17.6,17.6h2.9v-5.8h-2.9V17.6z M2.9,17.6v5.9h2.9v-3h0.1h11.7  v-2.9H2.9z M14.7,41.2v2.9h5.8v-2.9H14.7z M8.8,44.1v-5.9H5.9V47h8.8v-2.9H8.8z M14.7,29.4h-2.9v5.9h2.9V29.4z M23.5,5.9h-2.9v5.8  h2.9V5.9z M29.4,5.9h-2.9v5.8h2.9V5.9z M5.9,26.4h2.9v-2.9H5.9V26.4z M23.5,5.8h2.9V2.9h-2.9V5.8z M41.2,44.1h-5.9V47h8.8v-8.8h-2.9  V44.1z M32.3,17.6v2.9h11.8h0v3H47v-5.9H32.3z M20.6,41.1h2.9v-2.9h-2.9V41.1z M32.3,11.8h-2.9v5.8h2.9V11.8z M41.2,26.4h2.9v-2.9  h-2.9V26.4z M23.5,38.2h2.9v-2.9h-2.9V38.2z M29.4,41.2v2.9h5.9v-2.9H29.4z M29.4,38.2h-2.9v2.9h2.9V38.2z M38.2,29.5h2.9v-3h-2.9  V29.5l-2.9-0.1v5.9h2.9V29.5z M41.1,38.2v-2.9h-2.9v2.9H41.1z"/><text x="0" y="65" fill="#000000" font-size="5px" font-weight="bold" font-family="'Helvetica Neue', Helvetica, Arial-Unicode, Arial, Sans-serif">Created by ATOM</text><text x="0" y="70" fill="#000000" font-size="5px" font-weight="bold" font-family="'Helvetica Neue', Helvetica, Arial-Unicode, Arial, Sans-serif">from the Noun Project</text></svg>