<svg xmlns="http://www.w3.org/2000/svg" xmlns:xlink="http://www.w3.org/1999/xlink" version="1.1" x="0px" y="0px" viewBox="0 0 50 62.5" style="enable-background:new 0 0 50 50;" xml:space="preserve"><path d="M17.7,18.2v5.9h-5.8v-5.9H17.7z M8.9,6.5v2.9h29.4V6.5H8.9z M20.7,35.8v8.9h5.8v-2.9h-2.9v-8.9H8.9v2.9  C8.9,35.8,20.7,35.8,20.7,35.8z M38.3,9.4v23.5h-5.9v2.9h5.9v-2.9h2.9V9.4H38.3z M26.5,18.2h-5.8v5.9h5.8V18.2z M6,32.9h2.9V9.4H6  V32.9z M29.5,24.1h5.8v-5.9h-5.8V24.1z M29.5,38.8h-3v2.9h3V38.8l2.9,0.1v-3h-2.9C29.5,35.9,29.5,38.8,29.5,38.8z"/><text x="0" y="65" fill="#000000" font-size="5px" font-weight="bold" font-family="'Helvetica Neue', Helvetica, Arial-Unicode, Arial, Sans-serif">Created by ATOM</text><text x="0" y="70" fill="#000000" font-size="5px" font-weight="bold" font-family="'Helvetica Neue', Helvetica, Arial-Unicode, Arial, Sans-serif">from the Noun Project</text></svg>