<svg xmlns="http://www.w3.org/2000/svg" xmlns:xlink="http://www.w3.org/1999/xlink" version="1.1" x="0px" y="0px" viewBox="0 0 50 62.5" style="enable-background:new 0 0 50 50;" xml:space="preserve"><path d="M2.8,29.3h2.9V38H2.8V29.3z M5.8,29.1h2.9v-2.9H5.8V29.1z M44,26.3h-2.9v2.9H44V26.3z M29.3,35h-2.9V38h2.9V35z M11.7,29.3  v2.9h-3V35h3V38h2.9V35h2.9v-2.9h-2.9v-2.9H11.7z M23.4,35h-2.9V38h2.9V35z M38.1,29.3h-2.9v2.9h2.9V29.3z M38.1,35H41v-2.9h-2.9V35  z M44,29.3V38h2.9v-8.8H44z M32.3,32.2V35h2.9v-2.9H32.3z M26.3,23.4V11.6h-2.9V5.7h-2.9v8.9h2.9v8.8H8.7v2.9H41v-2.9  C41,23.3,26.3,23.3,26.3,23.4z M41.1,41H44v-3h-2.9V41z M35.2,38h2.9V35h-2.9V38z M8.7,41V38H5.8v3L8.7,41v2.9H41V41H8.7z"/><text x="0" y="65" fill="#000000" font-size="5px" font-weight="bold" font-family="'Helvetica Neue', Helvetica, Arial-Unicode, Arial, Sans-serif">Created by ATOM</text><text x="0" y="70" fill="#000000" font-size="5px" font-weight="bold" font-family="'Helvetica Neue', Helvetica, Arial-Unicode, Arial, Sans-serif">from the Noun Project</text></svg>