<svg xmlns="http://www.w3.org/2000/svg" xmlns:xlink="http://www.w3.org/1999/xlink" version="1.1" x="0px" y="0px" viewBox="0 0 100 125" enable-background="new 0 0 100 100" xml:space="preserve"><path d="M39.641,70.279v-4.445h4.445v4.445H39.641z M52.969,65.833h-4.446v4.445h4.446V65.833z M61.852,65.833h-4.438v4.445h4.438  V65.833z M61.852,70.279v4.446h4.445v4.437h4.446V65.833h-4.446v4.445H61.852z M61.852,74.725h-4.438v4.437h-4.445v-4.437h-4.446  v4.437h-4.437v-4.437h-4.445v4.437h-4.446v4.446h31.103v-4.446h-4.445V74.725z M57.414,74.725v-4.446h-4.445v4.446H57.414z   M48.522,74.725v-4.446h-4.437v4.446H48.522z M39.641,74.725v-4.446h-4.446v-4.445h-4.438v13.328h4.438v-4.437H39.641z   M61.852,65.833h4.445V56.95h-4.445V65.833z M39.641,56.95h-4.446v8.883h4.446V56.95z M61.852,56.95v-4.438h-4.438v4.438H61.852z   M44.086,52.513h-4.445v4.438h4.445V52.513z M52.969,52.513h4.445v-4.445h-4.445V52.513z M48.522,48.067h-4.437v4.445h4.437V48.067z   M57.414,48.067h4.438v-4.446h-4.438V48.067z M39.641,43.622v4.446h4.445v-4.446H39.641z M61.852,43.622h4.445v-8.883h-4.445V43.622  z M39.641,34.739h-4.446v8.883h4.446V34.739z M66.297,21.41v13.329h4.446V21.41H66.297z M35.194,21.41h-4.438v13.329h4.438V21.41z   M66.297,21.41v-4.438H35.194v4.438H66.297z"/><text x="0" y="115" fill="#000000" font-size="5px" font-weight="bold" font-family="'Helvetica Neue', Helvetica, Arial-Unicode, Arial, Sans-serif">Created by Elizabeth</text><text x="0" y="120" fill="#000000" font-size="5px" font-weight="bold" font-family="'Helvetica Neue', Helvetica, Arial-Unicode, Arial, Sans-serif">from the Noun Project</text></svg>